<?xml version="1.0" encoding="UTF-8"?>
<svg xmlns="http://www.w3.org/2000/svg" viewBox="0 0 100 100" stroke="currentColor" stroke-width="1.5" fill="none" stroke-linecap="round" stroke-linejoin="round">
  <!-- Folded ledger book at the bottom -->
  <path d="M14 74 L86 74 L86 90 L14 90 Z"/>
  <path d="M14 74 L18 70 L82 70 L86 74"/>
  <!-- Ledger horizontal lines -->
  <line x1="22" y1="78" x2="78" y2="78" opacity="0.6"/>
  <line x1="22" y1="82" x2="78" y2="82" opacity="0.6"/>
  <line x1="22" y1="86" x2="78" y2="86" opacity="0.6"/>
  <!-- Vertical post of balance scale -->
  <line x1="50" y1="70" x2="50" y2="30"/>
  <!-- Crossbeam -->
  <line x1="20" y1="30" x2="80" y2="30"/>
  <!-- Top fulcrum / finial -->
  <circle cx="50" cy="28" r="2"/>
  <!-- Left chains -->
  <line x1="20" y1="30" x2="14" y2="48"/>
  <line x1="20" y1="30" x2="26" y2="48"/>
  <!-- Right chains -->
  <line x1="80" y1="30" x2="74" y2="48"/>
  <line x1="80" y1="30" x2="86" y2="48"/>
  <!-- Left pan -->
  <path d="M10 48 L30 48 Q26 56 20 56 Q14 56 10 48 Z"/>
  <!-- Right pan -->
  <path d="M70 48 L90 48 Q86 56 80 56 Q74 56 70 48 Z"/>
</svg>
