<?xml version="1.0" encoding="UTF-8"?>
<svg xmlns="http://www.w3.org/2000/svg" viewBox="0 0 100 100" stroke="currentColor" stroke-width="1.5" fill="none" stroke-linecap="round" stroke-linejoin="round">
  <!-- Open book outer covers -->
  <path d="M10 28 L50 32 L90 28 L90 78 L50 82 L10 78 Z"/>
  <!-- Spine line -->
  <line x1="50" y1="32" x2="50" y2="82"/>
  <!-- Left page text-lines -->
  <line x1="18" y1="42" x2="44" y2="44" opacity="0.6"/>
  <line x1="18" y1="50" x2="44" y2="52" opacity="0.6"/>
  <line x1="18" y1="58" x2="44" y2="60" opacity="0.6"/>
  <line x1="18" y1="66" x2="44" y2="68" opacity="0.6"/>
  <line x1="18" y1="74" x2="44" y2="76" opacity="0.6"/>
  <!-- Right page text-lines -->
  <line x1="56" y1="44" x2="82" y2="42" opacity="0.6"/>
  <line x1="56" y1="52" x2="82" y2="50" opacity="0.6"/>
  <line x1="56" y1="60" x2="82" y2="58" opacity="0.6"/>
  <line x1="56" y1="68" x2="82" y2="66" opacity="0.6"/>
  <line x1="56" y1="76" x2="82" y2="74" opacity="0.6"/>
  <!-- Ribbon bookmark hanging out the bottom -->
  <path d="M46 80 L46 94 L50 90 L54 94 L54 80"/>
</svg>
