<?xml version="1.0" encoding="UTF-8"?>
<svg xmlns="http://www.w3.org/2000/svg" viewBox="0 0 600 600" width="600" height="600" stroke="#000" fill="none" stroke-width="0.8" opacity="0.04">
  <path d="M40 0 Q44 150 40 300 Q36 450 40 600"/>
  <path d="M100 0 Q96 150 100 300 Q104 450 100 600"/>
  <path d="M160 0 Q164 150 160 300 Q156 450 160 600"/>
  <path d="M220 0 Q216 150 220 300 Q224 450 220 600"/>
  <path d="M280 0 Q284 150 280 300 Q276 450 280 600"/>
  <path d="M340 0 Q336 150 340 300 Q344 450 340 600"/>
  <path d="M400 0 Q404 150 400 300 Q396 450 400 600"/>
  <path d="M460 0 Q456 150 460 300 Q464 450 460 600"/>
  <path d="M520 0 Q524 150 520 300 Q516 450 520 600"/>
  <path d="M580 0 Q576 150 580 300 Q584 450 580 600"/>
</svg>
