<?xml version="1.0" encoding="UTF-8"?>
<svg xmlns="http://www.w3.org/2000/svg" viewBox="0 0 600 600" width="600" height="600" stroke="#000" fill="none" stroke-width="0.6" opacity="0.05" stroke-linecap="round">
  <!-- 30 short lines emanating from center 300,300 like dust motes -->
  <line x1="320" y1="280" x2="380" y2="220"/>
  <line x1="330" y1="295" x2="420" y2="270"/>
  <line x1="335" y1="305" x2="430" y2="320"/>
  <line x1="325" y1="320" x2="395" y2="385"/>
  <line x1="305" y1="330" x2="320" y2="420"/>
  <line x1="290" y1="335" x2="265" y2="425"/>
  <line x1="275" y1="320" x2="200" y2="385"/>
  <line x1="265" y1="305" x2="170" y2="320"/>
  <line x1="265" y1="290" x2="180" y2="265"/>
  <line x1="280" y1="280" x2="225" y2="215"/>
  <line x1="295" y1="270" x2="280" y2="180"/>
  <line x1="310" y1="270" x2="335" y2="180"/>
  <line x1="325" y1="290" x2="410" y2="295"/>
  <line x1="320" y1="315" x2="405" y2="350"/>
  <line x1="295" y1="330" x2="290" y2="410"/>
  <line x1="275" y1="315" x2="195" y2="350"/>
  <line x1="270" y1="295" x2="190" y2="305"/>
  <line x1="285" y1="275" x2="240" y2="200"/>
  <line x1="315" y1="275" x2="365" y2="200"/>
  <line x1="332" y1="300" x2="425" y2="300"/>
  <line x1="312" y1="328" x2="345" y2="410"/>
  <line x1="285" y1="328" x2="245" y2="405"/>
  <line x1="268" y1="300" x2="175" y2="295"/>
  <line x1="290" y1="272" x2="260" y2="190"/>
  <line x1="310" y1="272" x2="350" y2="195"/>
  <line x1="325" y1="285" x2="400" y2="245"/>
  <line x1="325" y1="315" x2="400" y2="365"/>
  <line x1="278" y1="312" x2="215" y2="370"/>
  <line x1="278" y1="288" x2="210" y2="240"/>
  <line x1="300" y1="270" x2="305" y2="180"/>
</svg>
