<?xml version="1.0" encoding="UTF-8"?>
<svg xmlns="http://www.w3.org/2000/svg" viewBox="0 0 600 600" width="600" height="600" stroke="#000" fill="none" stroke-width="0.5" opacity="0.05">
  <line x1="0" y1="30" x2="600" y2="30"/>
  <line x1="0" y1="60" x2="600" y2="60"/>
  <line x1="0" y1="90" x2="600" y2="90"/>
  <line x1="0" y1="120" x2="600" y2="120"/>
  <line x1="0" y1="150" x2="600" y2="150"/>
  <line x1="0" y1="180" x2="600" y2="180"/>
  <line x1="0" y1="210" x2="600" y2="210"/>
  <line x1="0" y1="240" x2="600" y2="240"/>
  <line x1="0" y1="270" x2="600" y2="270"/>
  <line x1="0" y1="300" x2="600" y2="300"/>
  <line x1="0" y1="330" x2="600" y2="330"/>
  <line x1="0" y1="360" x2="600" y2="360"/>
  <line x1="0" y1="390" x2="600" y2="390"/>
  <line x1="0" y1="420" x2="600" y2="420"/>
  <line x1="0" y1="450" x2="600" y2="450"/>
  <line x1="0" y1="480" x2="600" y2="480"/>
  <line x1="0" y1="510" x2="600" y2="510"/>
  <line x1="0" y1="540" x2="600" y2="540"/>
  <line x1="0" y1="570" x2="600" y2="570"/>
  <line x1="0" y1="600" x2="600" y2="600"/>
  <line x1="80" y1="0" x2="80" y2="600"/>
</svg>
