<?xml version="1.0" encoding="UTF-8"?>
<svg xmlns="http://www.w3.org/2000/svg" viewBox="0 0 600 600" width="600" height="600" fill="#000" stroke="none" opacity="0.06">
  <circle cx="195.7" cy="93.3" r="0.4"/>
  <circle cx="389.4" cy="46.9" r="0.4"/>
  <circle cx="321.2" cy="220.5" r="0.4"/>
  <circle cx="38.3" cy="304.4" r="0.4"/>
  <circle cx="26.2" cy="260.7" r="0.4"/>
  <circle cx="45.4" cy="57.7" r="0.4"/>
  <circle cx="255.3" cy="493.5" r="0.4"/>
  <circle cx="77.3" cy="136.2" r="0.4"/>
  <circle cx="375.4" cy="565.0" r="0.4"/>
  <circle cx="345.6" cy="238.8" r="0.4"/>
  <circle cx="581.9" cy="31.6" r="0.4"/>
  <circle cx="512.2" cy="175.4" r="0.4"/>
  <circle cx="89.4" cy="73.7" r="0.4"/>
  <circle cx="186.6" cy="487.1" r="0.4"/>
  <circle cx="111.0" cy="348.3" r="0.4"/>
  <circle cx="382.2" cy="224.5" r="0.4"/>
  <circle cx="328.3" cy="41.2" r="0.4"/>
  <circle cx="39.3" cy="125.9" r="0.4"/>
  <circle cx="406.8" cy="257.1" r="0.4"/>
  <circle cx="190.0" cy="350.7" r="0.4"/>
  <circle cx="272.3" cy="181.5" r="0.4"/>
  <circle cx="474.3" cy="417.8" r="0.4"/>
  <circle cx="148.5" cy="344.1" r="0.4"/>
  <circle cx="314.9" cy="522.1" r="0.4"/>
  <circle cx="435.8" cy="174.5" r="0.4"/>
  <circle cx="584.3" cy="73.9" r="0.4"/>
  <circle cx="251.5" cy="452.2" r="0.4"/>
  <circle cx="94.0" cy="293.5" r="0.4"/>
  <circle cx="27.2" cy="399.6" r="0.4"/>
  <circle cx="456.6" cy="343.2" r="0.4"/>
  <circle cx="522.3" cy="189.7" r="0.4"/>
  <circle cx="415.6" cy="355.9" r="0.4"/>
  <circle cx="347.3" cy="274.1" r="0.4"/>
  <circle cx="501.3" cy="563.3" r="0.4"/>
  <circle cx="284.7" cy="397.2" r="0.4"/>
  <circle cx="39.9" cy="419.3" r="0.4"/>
  <circle cx="387.1" cy="591.9" r="0.4"/>
  <circle cx="490.6" cy="172.5" r="0.4"/>
  <circle cx="232.4" cy="399.8" r="0.4"/>
  <circle cx="17.4" cy="277.3" r="0.4"/>
  <circle cx="103.5" cy="73.3" r="0.4"/>
  <circle cx="38.9" cy="458.8" r="0.4"/>
  <circle cx="80.6" cy="150.6" r="0.4"/>
  <circle cx="235.4" cy="519.9" r="0.4"/>
  <circle cx="51.7" cy="269.9" r="0.4"/>
  <circle cx="329.3" cy="527.0" r="0.4"/>
  <circle cx="489.0" cy="515.5" r="0.4"/>
  <circle cx="168.8" cy="249.9" r="0.4"/>
  <circle cx="216.4" cy="527.4" r="0.4"/>
  <circle cx="571.0" cy="93.3" r="0.4"/>
  <circle cx="108.3" cy="141.3" r="0.4"/>
  <circle cx="142.1" cy="291.1" r="0.4"/>
  <circle cx="352.8" cy="159.5" r="0.4"/>
  <circle cx="6.4" cy="252.0" r="0.4"/>
  <circle cx="222.6" cy="339.3" r="0.4"/>
  <circle cx="568.2" cy="412.8" r="0.4"/>
  <circle cx="309.2" cy="369.6" r="0.4"/>
  <circle cx="404.3" cy="36.0" r="0.4"/>
  <circle cx="536.5" cy="465.7" r="0.4"/>
  <circle cx="521.7" cy="476.3" r="0.4"/>
  <circle cx="236.3" cy="240.2" r="0.4"/>
  <circle cx="65.3" cy="379.5" r="0.4"/>
  <circle cx="40.9" cy="43.9" r="0.4"/>
  <circle cx="127.6" cy="100.1" r="0.4"/>
  <circle cx="205.3" cy="35.1" r="0.4"/>
  <circle cx="4.1" cy="93.5" r="0.4"/>
  <circle cx="64.1" cy="219.3" r="0.4"/>
  <circle cx="19.1" cy="521.6" r="0.4"/>
  <circle cx="367.5" cy="91.9" r="0.4"/>
  <circle cx="153.3" cy="209.7" r="0.4"/>
  <circle cx="219.6" cy="76.7" r="0.4"/>
  <circle cx="506.6" cy="591.9" r="0.4"/>
  <circle cx="279.9" cy="290.4" r="0.4"/>
  <circle cx="54.8" cy="64.5" r="0.4"/>
  <circle cx="206.8" cy="160.7" r="0.4"/>
  <circle cx="494.7" cy="99.6" r="0.4"/>
  <circle cx="17.7" cy="567.0" r="0.4"/>
  <circle cx="316.7" cy="90.8" r="0.4"/>
  <circle cx="325.6" cy="20.0" r="0.4"/>
  <circle cx="316.6" cy="583.3" r="0.4"/>
  <circle cx="515.1" cy="416.1" r="0.4"/>
  <circle cx="158.6" cy="221.1" r="0.4"/>
  <circle cx="102.9" cy="461.0" r="0.4"/>
  <circle cx="319.3" cy="465.2" r="0.4"/>
  <circle cx="199.2" cy="136.0" r="0.4"/>
  <circle cx="484.4" cy="587.1" r="0.4"/>
  <circle cx="508.8" cy="481.2" r="0.4"/>
  <circle cx="488.5" cy="442.0" r="0.4"/>
  <circle cx="138.2" cy="310.4" r="0.4"/>
  <circle cx="214.5" cy="21.2" r="0.4"/>
  <circle cx="20.5" cy="169.4" r="0.4"/>
  <circle cx="157.4" cy="414.0" r="0.4"/>
  <circle cx="570.3" cy="268.8" r="0.4"/>
  <circle cx="558.7" cy="588.9" r="0.4"/>
  <circle cx="569.4" cy="219.9" r="0.4"/>
  <circle cx="134.5" cy="138.3" r="0.4"/>
  <circle cx="120.5" cy="125.0" r="0.4"/>
  <circle cx="373.4" cy="537.0" r="0.4"/>
  <circle cx="501.5" cy="287.8" r="0.4"/>
  <circle cx="390.6" cy="477.4" r="0.4"/>
  <circle cx="54.2" cy="395.1" r="0.4"/>
  <circle cx="542.6" cy="467.1" r="0.4"/>
  <circle cx="448.1" cy="287.0" r="0.4"/>
  <circle cx="109.7" cy="471.2" r="0.4"/>
  <circle cx="200.9" cy="478.1" r="0.4"/>
  <circle cx="579.2" cy="238.3" r="0.4"/>
  <circle cx="241.6" cy="564.5" r="0.4"/>
  <circle cx="433.1" cy="104.6" r="0.4"/>
  <circle cx="79.2" cy="93.5" r="0.4"/>
  <circle cx="539.7" cy="481.4" r="0.4"/>
  <circle cx="90.5" cy="493.3" r="0.4"/>
  <circle cx="584.3" cy="393.1" r="0.4"/>
  <circle cx="211.4" cy="328.8" r="0.4"/>
  <circle cx="81.5" cy="12.4" r="0.4"/>
  <circle cx="578.8" cy="388.6" r="0.4"/>
  <circle cx="315.7" cy="556.7" r="0.4"/>
  <circle cx="260.8" cy="520.1" r="0.4"/>
  <circle cx="493.1" cy="128.9" r="0.4"/>
  <circle cx="153.1" cy="177.4" r="0.4"/>
  <circle cx="146.4" cy="351.2" r="0.4"/>
  <circle cx="157.5" cy="252.1" r="0.4"/>
  <circle cx="81.6" cy="542.7" r="0.4"/>
  <circle cx="213.4" cy="275.2" r="0.4"/>
  <circle cx="349.3" cy="539.3" r="0.4"/>
  <circle cx="253.0" cy="547.3" r="0.4"/>
  <circle cx="301.0" cy="318.8" r="0.4"/>
  <circle cx="313.9" cy="15.1" r="0.4"/>
  <circle cx="264.6" cy="112.4" r="0.4"/>
  <circle cx="6.3" cy="477.1" r="0.4"/>
  <circle cx="106.0" cy="284.3" r="0.4"/>
  <circle cx="433.3" cy="333.4" r="0.4"/>
  <circle cx="197.0" cy="310.9" r="0.4"/>
  <circle cx="332.8" cy="468.3" r="0.4"/>
  <circle cx="66.8" cy="335.7" r="0.4"/>
  <circle cx="151.1" cy="167.9" r="0.4"/>
  <circle cx="461.2" cy="304.6" r="0.4"/>
  <circle cx="336.5" cy="453.9" r="0.4"/>
  <circle cx="544.2" cy="266.4" r="0.4"/>
  <circle cx="366.6" cy="303.3" r="0.4"/>
  <circle cx="307.2" cy="414.1" r="0.4"/>
  <circle cx="271.8" cy="319.7" r="0.4"/>
  <circle cx="287.0" cy="561.4" r="0.4"/>
  <circle cx="417.9" cy="522.9" r="0.4"/>
  <circle cx="561.8" cy="157.7" r="0.4"/>
  <circle cx="335.2" cy="562.4" r="0.4"/>
  <circle cx="501.3" cy="85.2" r="0.4"/>
  <circle cx="76.0" cy="265.7" r="0.4"/>
  <circle cx="46.9" cy="146.5" r="0.4"/>
  <circle cx="47.3" cy="400.3" r="0.4"/>
  <circle cx="468.1" cy="535.0" r="0.4"/>
  <circle cx="95.4" cy="427.9" r="0.4"/>
  <circle cx="394.9" cy="88.6" r="0.4"/>
  <circle cx="526.6" cy="576.8" r="0.4"/>
  <circle cx="134.0" cy="567.9" r="0.4"/>
  <circle cx="239.8" cy="292.5" r="0.4"/>
  <circle cx="590.0" cy="496.8" r="0.4"/>
  <circle cx="99.6" cy="259.5" r="0.4"/>
  <circle cx="309.2" cy="204.8" r="0.4"/>
  <circle cx="119.9" cy="192.6" r="0.4"/>
  <circle cx="431.5" cy="15.5" r="0.4"/>
  <circle cx="332.0" cy="264.8" r="0.4"/>
  <circle cx="14.7" cy="200.2" r="0.4"/>
  <circle cx="373.4" cy="307.3" r="0.4"/>
  <circle cx="42.1" cy="587.2" r="0.4"/>
  <circle cx="470.7" cy="579.2" r="0.4"/>
  <circle cx="66.0" cy="161.2" r="0.4"/>
  <circle cx="27.4" cy="465.2" r="0.4"/>
  <circle cx="164.1" cy="80.7" r="0.4"/>
  <circle cx="254.0" cy="543.6" r="0.4"/>
  <circle cx="488.8" cy="157.1" r="0.4"/>
  <circle cx="92.4" cy="548.1" r="0.4"/>
  <circle cx="341.8" cy="418.6" r="0.4"/>
  <circle cx="57.0" cy="38.1" r="0.4"/>
  <circle cx="411.4" cy="255.8" r="0.4"/>
  <circle cx="46.9" cy="559.5" r="0.4"/>
  <circle cx="379.6" cy="478.6" r="0.4"/>
  <circle cx="53.6" cy="510.9" r="0.4"/>
  <circle cx="43.4" cy="514.8" r="0.4"/>
  <circle cx="272.6" cy="204.8" r="0.4"/>
  <circle cx="331.4" cy="552.6" r="0.4"/>
  <circle cx="162.6" cy="80.5" r="0.4"/>
  <circle cx="315.9" cy="145.2" r="0.4"/>
  <circle cx="68.8" cy="99.6" r="0.4"/>
  <circle cx="33.8" cy="123.4" r="0.4"/>
  <circle cx="188.7" cy="184.6" r="0.4"/>
  <circle cx="453.6" cy="175.7" r="0.4"/>
  <circle cx="300.1" cy="109.3" r="0.4"/>
  <circle cx="209.4" cy="14.8" r="0.4"/>
  <circle cx="152.3" cy="13.1" r="0.4"/>
  <circle cx="438.0" cy="330.2" r="0.4"/>
  <circle cx="116.2" cy="285.1" r="0.4"/>
  <circle cx="557.3" cy="66.9" r="0.4"/>
  <circle cx="488.8" cy="259.8" r="0.4"/>
  <circle cx="297.0" cy="498.1" r="0.4"/>
  <circle cx="236.7" cy="304.0" r="0.4"/>
  <circle cx="411.1" cy="585.6" r="0.4"/>
  <circle cx="206.9" cy="496.7" r="0.4"/>
  <circle cx="422.4" cy="380.5" r="0.4"/>
  <circle cx="243.6" cy="209.8" r="0.4"/>
  <circle cx="36.2" cy="80.9" r="0.4"/>
  <circle cx="45.9" cy="442.6" r="0.4"/>
  <circle cx="155.3" cy="100.6" r="0.4"/>
  <circle cx="54.0" cy="502.0" r="0.4"/>
  <circle cx="519.4" cy="401.0" r="0.4"/>
  <circle cx="170.9" cy="147.4" r="0.4"/>
  <circle cx="177.5" cy="276.0" r="0.4"/>
  <circle cx="97.3" cy="267.9" r="0.4"/>
  <circle cx="159.8" cy="573.4" r="0.4"/>
  <circle cx="579.8" cy="327.9" r="0.4"/>
  <circle cx="148.7" cy="575.7" r="0.4"/>
  <circle cx="187.3" cy="215.1" r="0.4"/>
  <circle cx="4.6" cy="229.9" r="0.4"/>
  <circle cx="285.0" cy="301.6" r="0.4"/>
  <circle cx="123.0" cy="302.8" r="0.4"/>
  <circle cx="6.9" cy="160.4" r="0.4"/>
  <circle cx="57.1" cy="240.5" r="0.4"/>
  <circle cx="28.7" cy="17.3" r="0.4"/>
  <circle cx="184.1" cy="141.8" r="0.4"/>
  <circle cx="350.7" cy="317.3" r="0.4"/>
  <circle cx="448.3" cy="393.3" r="0.4"/>
  <circle cx="427.9" cy="524.4" r="0.4"/>
  <circle cx="234.6" cy="197.1" r="0.4"/>
  <circle cx="587.0" cy="92.5" r="0.4"/>
  <circle cx="432.7" cy="384.8" r="0.4"/>
  <circle cx="29.9" cy="498.5" r="0.4"/>
  <circle cx="532.0" cy="375.4" r="0.4"/>
  <circle cx="438.4" cy="484.8" r="0.4"/>
  <circle cx="86.5" cy="314.1" r="0.4"/>
  <circle cx="302.6" cy="498.3" r="0.4"/>
  <circle cx="480.4" cy="493.2" r="0.4"/>
  <circle cx="349.8" cy="532.6" r="0.4"/>
  <circle cx="408.3" cy="414.4" r="0.4"/>
  <circle cx="140.1" cy="22.4" r="0.4"/>
  <circle cx="82.8" cy="217.5" r="0.4"/>
  <circle cx="66.1" cy="498.8" r="0.4"/>
  <circle cx="334.6" cy="375.6" r="0.4"/>
  <circle cx="374.7" cy="407.0" r="0.4"/>
  <circle cx="293.7" cy="6.0" r="0.4"/>
  <circle cx="476.2" cy="447.0" r="0.4"/>
  <circle cx="301.8" cy="320.8" r="0.4"/>
  <circle cx="394.3" cy="43.1" r="0.4"/>
  <circle cx="440.2" cy="153.3" r="0.4"/>
  <circle cx="48.1" cy="161.2" r="0.4"/>
  <circle cx="435.8" cy="125.5" r="0.4"/>
  <circle cx="442.0" cy="581.6" r="0.4"/>
  <circle cx="296.4" cy="230.5" r="0.4"/>
  <circle cx="287.6" cy="408.7" r="0.4"/>
  <circle cx="458.0" cy="369.2" r="0.4"/>
  <circle cx="384.5" cy="49.9" r="0.4"/>
  <circle cx="91.3" cy="154.3" r="0.4"/>
  <circle cx="444.0" cy="184.2" r="0.4"/>
  <circle cx="340.1" cy="11.4" r="0.4"/>
  <circle cx="39.9" cy="163.1" r="0.4"/>
  <circle cx="401.8" cy="413.8" r="0.4"/>
  <circle cx="404.0" cy="176.2" r="0.4"/>
  <circle cx="309.8" cy="279.1" r="0.4"/>
  <circle cx="280.1" cy="74.2" r="0.4"/>
  <circle cx="533.0" cy="122.0" r="0.4"/>
  <circle cx="583.1" cy="558.3" r="0.4"/>
  <circle cx="14.4" cy="275.7" r="0.4"/>
</svg>
