<?xml version="1.0" encoding="UTF-8"?>
<svg xmlns="http://www.w3.org/2000/svg" viewBox="0 0 600 600" width="600" height="600" stroke="#000" fill="#000" stroke-width="0.6" opacity="0.06">
  <line x1="381.4" y1="22.6" x2="381.9" y2="25.5"/>
  <line x1="403.2" y1="529.0" x2="401.8" y2="529.7"/>
  <line x1="135.7" y1="303.1" x2="136.6" y2="305.8"/>
  <circle cx="326.2" cy="136.7" r="0.7"/>
  <circle cx="11.8" cy="478.6" r="0.47"/>
  <line x1="98.8" y1="567.0" x2="100.2" y2="567.9"/>
  <circle cx="502.9" cy="360.6" r="0.66"/>
  <line x1="321.2" y1="576.3" x2="318.2" y2="575.3"/>
  <circle cx="369.2" cy="511.2" r="0.65"/>
  <line x1="34.8" y1="141.1" x2="36.5" y2="142.0"/>
  <circle cx="67.0" cy="170.3" r="0.48"/>
  <line x1="224.2" y1="130.4" x2="226.8" y2="129.3"/>
  <circle cx="363.7" cy="107.9" r="0.38"/>
  <circle cx="229.6" cy="585.9" r="0.58"/>
  <circle cx="407.8" cy="500.2" r="0.41"/>
  <line x1="26.7" y1="192.2" x2="27.5" y2="195.5"/>
  <circle cx="519.8" cy="191.8" r="0.5"/>
  <line x1="542.1" y1="276.0" x2="542.2" y2="278.6"/>
  <circle cx="161.4" cy="349.4" r="0.5"/>
  <line x1="136.1" y1="590.6" x2="137.4" y2="591.5"/>
  <circle cx="72.0" cy="374.4" r="0.51"/>
  <circle cx="45.1" cy="230.9" r="0.56"/>
  <line x1="575.1" y1="510.7" x2="574.6" y2="507.9"/>
  <circle cx="321.6" cy="163.8" r="0.36"/>
  <circle cx="261.9" cy="273.0" r="0.74"/>
  <line x1="161.8" y1="300.3" x2="164.6" y2="298.6"/>
  <circle cx="182.3" cy="381.1" r="0.38"/>
  <circle cx="453.3" cy="323.0" r="0.57"/>
  <line x1="8.3" y1="197.3" x2="11.2" y2="195.9"/>
  <line x1="493.7" y1="187.6" x2="496.1" y2="185.2"/>
  <line x1="58.0" y1="291.8" x2="58.2" y2="288.8"/>
  <line x1="83.0" y1="285.6" x2="82.7" y2="288.8"/>
  <line x1="255.1" y1="131.7" x2="254.9" y2="129.8"/>
  <circle cx="190.0" cy="589.2" r="0.52"/>
  <line x1="310.3" y1="78.7" x2="308.9" y2="81.0"/>
  <line x1="142.4" y1="136.6" x2="141.1" y2="135.2"/>
  <line x1="536.8" y1="510.0" x2="537.0" y2="512.8"/>
  <circle cx="133.1" cy="85.3" r="0.59"/>
  <circle cx="284.0" cy="466.2" r="0.4"/>
  <line x1="64.6" y1="259.7" x2="61.7" y2="260.3"/>
  <line x1="401.2" y1="582.8" x2="399.4" y2="584.1"/>
  <line x1="511.2" y1="153.2" x2="509.0" y2="153.9"/>
  <circle cx="170.7" cy="153.9" r="0.52"/>
  <line x1="511.0" y1="329.4" x2="514.2" y2="329.4"/>
  <circle cx="573.9" cy="549.0" r="0.38"/>
  <line x1="291.6" y1="132.8" x2="293.7" y2="133.6"/>
  <circle cx="583.4" cy="162.9" r="0.53"/>
  <circle cx="255.0" cy="567.1" r="0.58"/>
  <line x1="427.6" y1="98.4" x2="430.2" y2="97.9"/>
  <line x1="324.6" y1="444.8" x2="322.4" y2="443.5"/>
  <circle cx="506.0" cy="99.9" r="0.34"/>
  <circle cx="116.5" cy="355.5" r="0.42"/>
  <line x1="78.0" y1="527.9" x2="75.7" y2="526.4"/>
  <line x1="252.8" y1="348.9" x2="254.6" y2="348.1"/>
  <line x1="426.3" y1="147.4" x2="425.3" y2="145.5"/>
  <line x1="192.6" y1="447.1" x2="189.2" y2="448.0"/>
  <line x1="589.7" y1="50.8" x2="589.4" y2="54.2"/>
  <line x1="522.4" y1="521.5" x2="524.1" y2="524.2"/>
  <circle cx="418.9" cy="365.2" r="0.63"/>
  <line x1="12.6" y1="485.2" x2="10.9" y2="482.3"/>
  <line x1="86.4" y1="75.4" x2="84.5" y2="74.7"/>
  <line x1="361.2" y1="427.1" x2="359.9" y2="425.6"/>
  <circle cx="293.3" cy="536.7" r="0.35"/>
  <line x1="255.4" y1="169.6" x2="255.8" y2="166.9"/>
  <circle cx="161.0" cy="440.9" r="0.51"/>
  <circle cx="13.6" cy="51.9" r="0.75"/>
  <circle cx="326.6" cy="495.4" r="0.37"/>
  <circle cx="82.4" cy="188.0" r="0.7"/>
  <line x1="510.7" y1="533.0" x2="510.7" y2="534.7"/>
  <line x1="463.6" y1="524.3" x2="462.3" y2="523.1"/>
  <circle cx="551.1" cy="512.9" r="0.71"/>
  <circle cx="522.7" cy="22.5" r="0.47"/>
  <circle cx="551.6" cy="476.5" r="0.71"/>
  <line x1="163.8" y1="467.8" x2="166.0" y2="465.5"/>
  <line x1="137.9" y1="484.9" x2="136.8" y2="487.8"/>
  <line x1="140.9" y1="21.8" x2="139.4" y2="24.6"/>
  <circle cx="572.7" cy="171.0" r="0.5"/>
  <circle cx="581.0" cy="321.1" r="0.36"/>
  <circle cx="574.7" cy="112.3" r="0.43"/>
  <circle cx="71.3" cy="261.8" r="0.46"/>
  <line x1="362.0" y1="306.7" x2="360.2" y2="305.8"/>
  <circle cx="421.9" cy="9.0" r="0.57"/>
  <circle cx="428.1" cy="441.3" r="0.48"/>
  <line x1="48.9" y1="395.9" x2="47.7" y2="398.8"/>
  <line x1="428.3" y1="183.4" x2="426.4" y2="184.7"/>
  <line x1="180.7" y1="82.3" x2="183.4" y2="81.3"/>
  <line x1="535.2" y1="367.5" x2="533.8" y2="367.1"/>
  <circle cx="175.6" cy="259.1" r="0.63"/>
  <line x1="279.6" y1="266.2" x2="276.3" y2="266.8"/>
  <line x1="472.9" y1="107.1" x2="470.1" y2="106.8"/>
  <circle cx="203.7" cy="486.0" r="0.64"/>
  <line x1="139.2" y1="124.3" x2="139.3" y2="126.7"/>
  <line x1="504.2" y1="50.5" x2="502.9" y2="49.1"/>
  <line x1="414.7" y1="296.7" x2="413.9" y2="295.4"/>
  <line x1="446.6" y1="457.7" x2="444.9" y2="458.5"/>
  <line x1="567.5" y1="310.5" x2="567.5" y2="313.7"/>
  <circle cx="274.6" cy="476.0" r="0.79"/>
  <circle cx="355.7" cy="562.8" r="0.61"/>
  <circle cx="428.1" cy="302.8" r="0.57"/>
  <line x1="532.0" y1="442.3" x2="531.9" y2="444.3"/>
  <line x1="380.4" y1="455.2" x2="379.0" y2="453.7"/>
  <line x1="53.3" y1="174.9" x2="52.2" y2="177.2"/>
  <circle cx="88.8" cy="143.1" r="0.65"/>
  <line x1="45.5" y1="246.0" x2="43.8" y2="247.0"/>
  <circle cx="253.4" cy="536.4" r="0.65"/>
  <line x1="508.3" y1="455.1" x2="510.5" y2="455.2"/>
  <circle cx="448.0" cy="506.4" r="0.51"/>
  <circle cx="444.5" cy="326.9" r="0.41"/>
  <line x1="136.1" y1="262.5" x2="134.6" y2="264.9"/>
  <line x1="244.1" y1="104.4" x2="246.0" y2="106.4"/>
</svg>
